<svg width="36.33" height="36.33" viewBox="26.34 26.34 36.33 36.33" fill="none" xmlns="http://www.w3.org/2000/svg">
<g id="Frame 30">
<path id="Vector" d="M30.9313 36.8308C31.007 37.0571 31.1519 37.2538 31.3455 37.3932C31.5391 37.5326 31.7716 37.6076 32.0102 37.6076C32.2488 37.6076 32.4813 37.5326 32.675 37.3932C32.8686 37.2538 33.0135 37.0571 33.0891 36.8308L34.0446 33.9629L36.9126 33.0075C37.1378 32.9315 37.3336 32.7868 37.4722 32.5937C37.6108 32.4006 37.6854 32.1689 37.6854 31.9312C37.6854 31.6935 37.6108 31.4618 37.4722 31.2687C37.3336 31.0756 37.1378 30.9309 36.9126 30.8549L34.0446 29.8995L33.0891 27.0316C32.7775 26.1051 31.2447 26.1051 30.9347 27.0316L29.9776 29.8995L27.1096 30.8549C26.8843 30.9309 26.6886 31.0756 26.55 31.2687C26.4113 31.4618 26.3367 31.6935 26.3367 31.9312C26.3367 32.1689 26.4113 32.4006 26.55 32.5937C26.6886 32.7868 26.8843 32.9315 27.1096 33.0075L29.9776 33.9629L30.9347 36.8308H30.9313ZM61.5871 44.0517L51.2902 39.9815L47.218 29.6832C46.702 28.3838 44.5663 28.3838 44.0503 29.6832L39.9799 39.9815L29.6812 44.0517C29.3634 44.1769 29.0906 44.3948 28.8984 44.6772C28.7062 44.9595 28.6033 45.2931 28.6033 45.6347C28.6033 45.9763 28.7062 46.3099 28.8984 46.5922C29.0906 46.8746 29.3634 47.0925 29.6812 47.2177L39.9782 51.2879L44.0486 61.5862C44.1741 61.9039 44.3923 62.1764 44.6747 62.3685C44.9572 62.5606 45.2909 62.6633 45.6325 62.6633C45.974 62.6633 46.3077 62.5606 46.5902 62.3685C46.8726 62.1764 47.0908 61.9039 47.2163 61.5862L51.2867 51.2896L61.5854 47.2177C61.9032 47.0925 62.176 46.8746 62.3682 46.5922C62.5605 46.3099 62.6633 45.9763 62.6633 45.6347C62.6633 45.2931 62.5605 44.9595 62.3682 44.6772C62.176 44.3948 61.9032 44.1769 61.5854 44.0517H61.5871Z" fill="#1F1500"/>
</g>
</svg>
