<svg width="61" height="61" viewBox="0 0 61 61" fill="none" xmlns="http://www.w3.org/2000/svg">
<g clip-path="url(#clip0_27_9741)">
<g clip-path="url(#clip1_27_9741)">
<path d="M-15 -9.5H76V81.5H-15V-9.5ZM14.9745 61.199C15.0781 61.6835 15.784 63.0756 16.0397 63.547L16.0868 63.5042C15.8557 62.6237 15.5357 61.9111 15.1769 61.0771L14.9745 61.199Z" fill="#1F1500"/>
<path d="M46.56 9.92749C45.0229 14.373 43.1603 21.1455 43.4067 25.7953C43.5654 28.7915 45.1408 32.2042 46.3109 35.0024C50.3657 44.6994 50.017 51.2419 46.6477 60.9319C46.6171 60.9269 46.481 60.8296 46.4444 60.8052C47.0105 59.0472 47.513 56.713 47.852 54.9148C48.8243 49.758 48.7073 44.9492 47.1609 39.9149C46.8217 38.8104 46.4368 37.299 45.7629 36.3398C45.7515 36.3521 45.7402 36.3642 45.7288 36.3764C45.228 36.9956 44.5739 38.2102 44.0388 38.7525C41.4603 41.3662 38.0254 44.0791 34.2318 44.2803C29.6452 44.5238 25.8932 41.7527 22.1784 39.4884C21.6535 39.1686 19.9635 38.1322 19.4528 38.0165C19.1581 37.8621 18.7898 37.748 18.7871 37.3821C19.8722 37.6022 21.7093 38.5665 22.71 39.1176C26.4449 41.1744 30.4301 43.9022 34.9171 43.2932C38.1593 42.8531 41.6411 40.3481 43.9904 38.127C44.3058 37.8288 45.2869 36.4763 45.5919 36.0746C45.6205 35.9101 45.6485 35.6946 45.5892 35.5357C44.4759 32.5495 43.0363 29.6515 42.7213 26.4268C42.5108 24.2733 42.8507 21.938 43.3193 19.8181C44.0483 16.5205 45.0511 13.2974 46.185 10.1143L46.56 9.92749Z" fill="#F1E9DB"/>
<path d="M16.3258 10.7798C18.9789 17.5195 22.0963 22.5576 18.7014 29.7109C17.6047 32.0218 16.2379 34.4539 15.2446 36.7263L15.1161 37.1348C14.6014 38.0406 14.1253 39.5736 13.8212 40.6079C12.1062 46.4401 12.4163 51.6892 14.0163 57.4892C14.3579 58.6994 14.745 59.8962 15.1768 61.0772L14.9744 61.1991C11.1063 53.0682 10.6349 44.267 14.5841 36.0901C15.623 33.9392 16.8198 31.6247 17.9541 29.5212C21.5269 22.8951 18.4238 17.5355 16.1499 11.1255L16.3258 10.7798Z" fill="#F1E9DB"/>
<path d="M19.6432 38.3218C24.4195 40.4877 28.6823 47.6575 31.2081 52.0399C32.0295 52.165 32.6936 52.2635 33.4699 51.8527C34.9576 51.0653 36.1836 49.7359 37.358 48.5517C39.1404 46.7856 40.8431 44.941 42.4614 43.0234C42.5844 43.0435 42.8109 43.0709 42.9186 43.1133C41.1126 45.7297 39.0019 48.1589 36.7778 50.4258C35.3094 51.9225 33.9294 53.2238 31.6807 53.0976C33.3273 55.9165 33.6188 58.5893 34.5501 61.3835L34.3284 61.7761C32.2145 54.5644 25.5542 42.6738 19.1968 38.3662L19.6432 38.3218Z" fill="#F1E9DB"/>
<path d="M34.604 11.9045C34.9036 12.2137 35.1938 13.7507 35.2871 14.2449C36.1679 18.9105 35.9265 23.8635 35.0724 28.5182C35.6498 28.6669 36.0176 28.754 36.313 29.3047C36.8006 30.2138 37.1649 31.7313 36.8503 32.7263C36.6087 33.4901 36.3429 33.7567 35.6838 34.1198C34.3153 34.5216 33.7913 33.6056 33.6687 32.3698C33.5237 30.9072 33.664 29.8889 34.5787 28.7222C34.6128 28.0222 35.1587 25.4787 35.274 24.5704C35.8682 19.8901 35.6184 16.4573 34.604 11.9045Z" fill="#F1E9DB"/>
<path d="M34.9842 29.4835C35.0802 29.0846 35.0003 29.1388 35.269 28.9446C36.2874 29.0114 36.5533 31.1452 36.5631 31.9891C36.5721 32.7593 35.9202 33.9117 35.0021 33.8942C33.7336 33.6896 33.7693 30.1762 34.3574 29.4118L34.4907 29.3871C34.457 30.2439 34.18 32.459 35.1076 32.9265C35.3675 32.8894 35.268 32.9348 35.4798 32.7013L35.3624 32.5535C34.8022 32.1097 34.7937 31.1107 34.9434 30.4679C34.9208 30.051 34.9317 29.8998 34.9842 29.4835Z" fill="#1F1500"/>
<path d="M34.9845 29.4834C34.8159 30.5957 36.2455 31.7206 35.4801 32.7012L35.3628 32.5534C34.8025 32.1096 34.794 31.1106 34.9437 30.4678C34.9212 30.0509 34.932 29.8997 34.9845 29.4834Z" fill="#F1E9DB"/>
<path d="M34.9437 30.4678C35.1033 30.7122 35.4343 32.262 35.3628 32.5534C34.8025 32.1096 34.794 31.1106 34.9437 30.4678Z" fill="#1F1500"/>
<path d="M42.4609 43.0232C43.3564 41.8375 44.2346 40.7363 44.8591 39.372C45.0564 38.9412 45.5381 37.2841 45.7562 37.0859C45.7038 37.4417 45.5887 38.5264 45.4428 38.7956C44.7073 40.1519 43.9311 41.9549 42.9182 43.1132C42.8105 43.0708 42.5839 43.0433 42.4609 43.0232Z" fill="#F1E9DB"/>
<path d="M15.1162 37.1346L15.2447 36.7261C15.5271 36.8668 18.0518 37.0273 18.7871 37.3822C18.7898 37.748 19.1582 37.8622 19.4528 38.0165C19.5099 38.1255 19.5566 38.2363 19.643 38.3217L19.1965 38.3661C17.9637 37.4615 16.6058 37.1781 15.1162 37.1346Z" fill="#F1E9DB"/>
<path d="M46.4443 60.8054C46.4809 60.8299 46.6171 60.9271 46.6476 60.9321C46.5352 61.6714 45.7592 63.4618 45.4409 64.1508C45.521 63.4998 46.1862 61.4697 46.4443 60.8054Z" fill="#F1E9DB"/>
<path d="M16.1502 11.1253C15.7919 10.0859 15.3778 8.90726 15.2271 7.82593C15.6472 8.70154 16.018 9.84437 16.3262 10.7796L16.1502 11.1253Z" fill="#F1E9DB"/>
<path d="M47.1485 7.78955C47.0762 8.42415 46.763 9.29594 46.5601 9.9277L46.1851 10.1145C46.5205 9.2212 46.7108 8.66089 47.1485 7.78955Z" fill="#F1E9DB"/>
</g>
</g>
<defs>
<clipPath id="clip0_27_9741">
<rect width="61" height="61" rx="30.5" fill="white"/>
</clipPath>
<clipPath id="clip1_27_9741">
<rect width="91" height="91" fill="white" transform="translate(-15 -9.5)"/>
</clipPath>
</defs>
</svg>
