<svg width="173.2" height="249.9" viewBox="0 0 173.20 249.90" fill="none" xmlns="http://www.w3.org/2000/svg"><path d="M9.45 249.90L9.45 213.85L93.10 127.75C111.77 108.15 121.10 91.82 121.10 78.75C121.10 69.18 118.07 61.48 112.00 55.65C106.17 49.82 98.58 46.90 89.25 46.90C70.82 46.90 57.17 56.47 48.30 75.60L7.70 51.80C15.40 35.00 26.48 22.17 40.95 13.30C55.42 4.43 71.28 0.00 88.55 0.00C110.72 0.00 129.73 7.00 145.60 21.00C161.47 34.77 169.40 53.43 169.40 77.00C169.40 102.43 155.98 128.57 129.15 155.40L81.20 203.35L173.25 203.35L173.25 249.90L9.45 249.90" fill="#1F1500" fill-rule="evenodd"/></svg>